# xmcd
#
# Track frame offsets:
#	150
#	22912
#	39294
#	54217
#	74409
#	89583
#	105833
#	127540
#	145179
#	161973
#	176024
#	191624
#
# Disc length: 2708 seconds
#
# Revision: 1
# Processed by: cddbd v1.5.2PL0 Copyright (c) Steve Scherf et al.
# Submitted via: audiograbber 1.83.01
#
DISCID=930a920c
DTITLE=Till Seifert - Zwischen Fortgehen und Bleiben
DYEAR=2011
DGENRE=Singer-/Songwriter
TTITLE0=Heimat und Fernweh
TTITLE1=Wo finde ich dich wieder
TTITLE2=Soweit der Himmel blau ist
TTITLE3=Regen
TTITLE4=Das alte Leben
TTITLE5=Lass mir Raum
TTITLE6=Der Wind nimmt sie mit
TTITLE7=Neues Land sehen
TTITLE8=Wenn du da bist
TTITLE9=Was wäre wenn
TTITLE10=Zeit noch zu bleiben
TTITLE11=Rückblick
EXTD=
EXTT0=
EXTT1=
EXTT2=
EXTT3=
EXTT4=
EXTT5=
EXTT6=
EXTT7=
EXTT8=
EXTT9=
EXTT10=
EXTT11=
PLAYORDER=
